<svg xmlns="http://www.w3.org/2000/svg" viewBox="0 0 182.0 106" width="182" height="106">
  <!-- brij by extol lockup · dark · brij outlined, byline as text -->
  <g transform="translate(4,62.8) scale(0.028481,-0.028481)" fill="#e8ddd0">
      <path d="M1180 506Q1180 447 1130 373L1116 377Q1098 355 1098 338Q1098 321 1104 297L1098 287L1094 264L1071 238L1030 182L981 152L874 53L827 29L741 -6L664 -23L575 -37H573L510 -20H467L336 14L254 20L203 37L111 0L98 -4L86 -2L84 20L82 45L109 68Q139 89 141 100L152 123L168 147L166 260Q169 278 177.5 286.5Q186 295 207 295L213 326L211 342L172 358L170 371L176 516L172 571L182 588L199 586L201 610L174 631L172 645L174 657L178 684L164 770L166 842L164 885Q164 889 166 891L184 924Q188 928 188 938Q188 959 164 981V1014L162 1190L156 1217L164 1327L156 1384V1425L184 1468L172 1493Q160 1514 160 1526L162 1542Q199 1559 199 1581Q199 1609 162 1612L143 1659L158 1765L139 1804Q125 1823 123 1835L150 1855L190 1886L242 1901L279 1919Q288 1925 301 1925Q317 1925 329.5 1915.0Q342 1905 342 1892Q342 1882 324 1841L313 1821Q338 1793 338 1780V1776L326 1731L328 1686L313 1647L324 1524L299 1483Q293 1471 293 1460Q293 1454 295 1452L328 1407L313 1249L328 1163Q328 1139 297 1128L272 1120L274 1087Q275 1065 281.5 1057.0Q288 1049 313 1034L315 1012L322 942Q322 928 315 909L287 846Q287 833 319 819Q333 813 342 813Q364 813 393 846Q413 840 422 840Q440 840 492 858L584 889Q597 864 616 864Q637 864 649 868L653 889L678 887L729 889Q742 889 754 874Q833 872 874 862Q924 852 944.5 836.0Q965 820 971 784L1001 778Q1012 797 1026 797Q1034 797 1036 793L1053 770L1083 743L1102 700L1135 666L1143 649L1157 578L1176 539Q1180 526 1180 506ZM1006 408 991 537 993 571Q993 592 985 596L944 625L924 662Q909 685 870 707L791 752L741 778L606 791L526 805Q495 805 475 795L379 739L311 702Q301 685 301 668L309 582L315 522V500L313 479L289 432L317 344L309 295L315 158Q315 158 315 150Q291 132 283 109Q307 84 322 84L393 80L426 66H459L500 51L528 43L526 35L551 45H565L657 41L731 61Q811 75 850 117L895 166L926 197L963 268L987 315L997 383Z"/>
      <g transform="translate(1235,0)"><path d="M831 838Q831 833 827 829L770 784L739 752L721 745L694 762L676 780L616 782L559 805L537 811Q524 789 510.0 783.5Q496 778 453 778L420 764L395 772L375 756L295 694Q275 668 272 598L270 522L248 508Q268 474 268 442H283L285 414L289 285L291 217L287 156Q256 138 256 127Q256 125 264 109L291 115L289 106L297 66V61Q297 46 281.0 30.0Q265 14 248 12L209 8L150 -23L125 -8L129 12L143 70L137 147L143 158H164V170L162 188L150 217L147 258L139 293V295V322L141 354Q145 359 149.5 364.5Q154 370 161.5 381.0Q169 392 178 408L188 432L186 442Q139 442 139 463L143 539L137 614Q140 624 150 633V662L137 674L133 698L131 752L109 795Q116 831 141 856L203 889L240 913Q268 905 278.5 894.0Q289 883 289 858V852V825Q289 788 305 788H309L360 815L410 834L496 881L524 893L547 887L592 901Q631 913 651 913L694 909Q714 881 727 881Q729 882 730.0 882.5Q731 883 733 883L756 895Q764 899 768 899Q793 899 815 872Q831 853 831 838Z"/></g>
      <g transform="translate(2026,0)"><path d="M373 1409Q373 1387 362 1380L289 1327L260 1298L207 1262Q154 1223 143 1223Q138 1223 132.5 1229.5Q127 1236 127 1243Q127 1266 139 1278L242 1376L297 1450Q309 1456 324 1456Q344 1456 358.5 1442.5Q373 1429 373 1409ZM313 879Q294 837 291 801L285 702L266 668Q266 666 265.5 664.0Q265 662 264 659Q264 646 289 631L285 600V406L281 250L295 184V150L299 82Q294 67 236 23L186 -16Q174 -29 156 -29Q143 -29 133.0 -21.0Q123 -13 123 -4Q123 22 139 57L147 86L137 96L152 264L158 281L184 285V317Q184 348 179.0 363.0Q174 378 154 403L156 436V442L154 459Q154 492 166 518L152 535L154 590Q168 598 168 608L166 625L137 629V659L139 686V727Q139 754 133.5 767.0Q128 780 109 795Q122 830 168 856L264 911Q291 908 313 879Z"/></g>
      <g transform="translate(2454,0)"><path d="M322 1397Q322 1397 321.0 1394.0Q320 1391 319 1389Q314 1382 315 1382L180 1290L117 1241L100 1231L80 1262Q119 1318 162 1348L168 1368L197 1401L242 1452Q252 1464 268 1464H283L291 1444L309 1423Q322 1406 322 1397ZM315 -299 307 -422Q304 -484 293 -522L264 -530L262 -541L279 -594L254 -713L250 -727Q250 -741 223 -801L203 -850L190 -877L172 -881L162 -903L137 -938L86 -1018L12 -1094L-4 -1118L-63 -1145L-78 -1163Q-92 -1181 -106 -1186L-119 -1182Q-129 -1182 -197 -1204H-252L-322 -1227Q-373 -1235 -403 -1235Q-438 -1235 -487 -1186Q-528 -1148 -528 -1126Q-528 -1117 -517.0 -1109.5Q-506 -1102 -494 -1102L-479 -1104L-354 -1147H-299L-274 -1165L-250 -1171L-225 -1151L-158 -1145L-127 -1124L-51 -1090L-14 -1053Q42 -995 53 -969L111 -836L143 -795L135 -743L156 -610V-526L186 -473L188 -449Q162 -440 162 -410V-393L170 -303L168 -217L176 -162L195 -156Q195 -156 207 -160L215 -129L203 -117Q191 -121 188 -121Q182 -121 166 -113L164 49H199L205 70Q205 94 190.5 114.0Q176 134 156 141L160 311L178 309Q191 309 194.0 315.5Q197 322 197 352L188 362Q150 362 150 377L156 422L160 444H170Q178 472 178 494Q178 546 166 561L143 594L135 748L104 782L127 821L154 831L264 903Q273 909 283 909Q304 909 307 872L301 842L307 795L301 688L303 668L279 623L281 590L272 555Q311 546 311 524L299 451L305 289L297 229L303 182L299 113L309 43L313 14V-25L311 -76V-109L313 -145V-158L301 -188L297 -215L299 -236Z"/></g>
  </g>
  <text x="94.0" y="62.8" font-family="Outfit, system-ui, -apple-system, sans-serif" font-size="18" font-weight="400" fill="#665544" letter-spacing="0.12em">by extol</text>
</svg>