<svg xmlns="http://www.w3.org/2000/svg" viewBox="0 0 1024 1024" width="1024" height="1024">
  <!-- brij app icon · outlined Papyrus "b" on warm cream -->
  <rect width="1024" height="1024" rx="224" fill="#faf7f2"/>
  <g transform="translate(272.7,870.0) scale(0.379205,-0.379205)" fill="#5c3a20">
    <path d="M1180 506Q1180 447 1130 373L1116 377Q1098 355 1098 338Q1098 321 1104 297L1098 287L1094 264L1071 238L1030 182L981 152L874 53L827 29L741 -6L664 -23L575 -37H573L510 -20H467L336 14L254 20L203 37L111 0L98 -4L86 -2L84 20L82 45L109 68Q139 89 141 100L152 123L168 147L166 260Q169 278 177.5 286.5Q186 295 207 295L213 326L211 342L172 358L170 371L176 516L172 571L182 588L199 586L201 610L174 631L172 645L174 657L178 684L164 770L166 842L164 885Q164 889 166 891L184 924Q188 928 188 938Q188 959 164 981V1014L162 1190L156 1217L164 1327L156 1384V1425L184 1468L172 1493Q160 1514 160 1526L162 1542Q199 1559 199 1581Q199 1609 162 1612L143 1659L158 1765L139 1804Q125 1823 123 1835L150 1855L190 1886L242 1901L279 1919Q288 1925 301 1925Q317 1925 329.5 1915.0Q342 1905 342 1892Q342 1882 324 1841L313 1821Q338 1793 338 1780V1776L326 1731L328 1686L313 1647L324 1524L299 1483Q293 1471 293 1460Q293 1454 295 1452L328 1407L313 1249L328 1163Q328 1139 297 1128L272 1120L274 1087Q275 1065 281.5 1057.0Q288 1049 313 1034L315 1012L322 942Q322 928 315 909L287 846Q287 833 319 819Q333 813 342 813Q364 813 393 846Q413 840 422 840Q440 840 492 858L584 889Q597 864 616 864Q637 864 649 868L653 889L678 887L729 889Q742 889 754 874Q833 872 874 862Q924 852 944.5 836.0Q965 820 971 784L1001 778Q1012 797 1026 797Q1034 797 1036 793L1053 770L1083 743L1102 700L1135 666L1143 649L1157 578L1176 539Q1180 526 1180 506ZM1006 408 991 537 993 571Q993 592 985 596L944 625L924 662Q909 685 870 707L791 752L741 778L606 791L526 805Q495 805 475 795L379 739L311 702Q301 685 301 668L309 582L315 522V500L313 479L289 432L317 344L309 295L315 158Q315 158 315 150Q291 132 283 109Q307 84 322 84L393 80L426 66H459L500 51L528 43L526 35L551 45H565L657 41L731 61Q811 75 850 117L895 166L926 197L963 268L987 315L997 383Z"/>
  </g>
</svg>